<svg xmlns="http://www.w3.org/2000/svg" viewBox="0 0 200 200" width="200" height="200">
  <defs>
    <radialGradient id="bg-vex" cx="50%" cy="40%" r="60%">
      <stop offset="0%" stop-color="#101828"/>
      <stop offset="100%" stop-color="#050a14"/>
    </radialGradient>
  </defs>
  <!-- Background -->
  <circle cx="100" cy="100" r="100" fill="url(#bg-vex)"/>
  <!-- Task/delivery lines (Kanban grid feel) -->
  <rect x="14" y="20" width="28" height="10" rx="2" fill="#4a90d9" opacity="0.12"/>
  <rect x="14" y="34" width="22" height="10" rx="2" fill="#4a90d9" opacity="0.09"/>
  <rect x="14" y="48" width="26" height="10" rx="2" fill="#4a90d9" opacity="0.07"/>
  <!-- Check marks -->
  <path d="M 162 24 L 166 28 L 174 20" stroke="#4a90d9" stroke-width="2" fill="none" stroke-linecap="round" opacity="0.3"/>
  <path d="M 162 38 L 166 42 L 174 34" stroke="#4a90d9" stroke-width="2" fill="none" stroke-linecap="round" opacity="0.25"/>
  <rect x="158" y="18" width="20" height="14" rx="2" fill="none" stroke="#4a90d9" stroke-width="1" opacity="0.2"/>
  <rect x="158" y="32" width="20" height="14" rx="2" fill="none" stroke="#4a90d9" stroke-width="1" opacity="0.2"/>

  <!-- Business casual - oxford / button-down -->
  <path d="M 0 200 L 0 150 Q 28 134 56 148 L 74 167 L 100 161 L 126 167 L 144 148 Q 172 134 200 150 L 200 200 Z" fill="#0e1620"/>
  <!-- Collar - button down look -->
  <path d="M 80 162 L 86 150 L 94 155 L 100 152 L 106 155 L 114 150 L 120 162 L 100 158 Z" fill="#18243a"/>
  <!-- Button line -->
  <circle cx="100" cy="162" r="2" fill="#2a3a5a"/>
  <circle cx="100" cy="172" r="2" fill="#2a3a5a"/>
  <circle cx="100" cy="182" r="2" fill="#2a3a5a"/>
  <!-- Blue accent on shoulder seams -->
  <path d="M 56 148 Q 60 152 64 162" stroke="#4a90d9" stroke-width="2" fill="none" opacity="0.5"/>
  <path d="M 144 148 Q 140 152 136 162" stroke="#4a90d9" stroke-width="2" fill="none" opacity="0.5"/>

  <!-- Neck -->
  <rect x="90" y="143" width="20" height="20" rx="4" fill="#d4b090"/>
  <!-- Head -->
  <ellipse cx="100" cy="114" rx="34" ry="37" fill="#dbbf9a"/>
  <!-- Ears -->
  <ellipse cx="66" cy="116" rx="6.5" ry="9" fill="#ccae88"/>
  <ellipse cx="134" cy="116" rx="6.5" ry="9" fill="#ccae88"/>
  <ellipse cx="66" cy="116" rx="4" ry="6" fill="#dbbf9a"/>
  <ellipse cx="134" cy="116" rx="4" ry="6" fill="#dbbf9a"/>

  <!-- Hair - short-medium, neat, professional brown -->
  <path d="M 66 105 Q 66 66 100 62 Q 134 66 134 105 Q 126 78 100 76 Q 74 78 66 105 Z" fill="#3a2410"/>
  <!-- Clean side part -->
  <path d="M 88 64 Q 90 70 88 80" stroke="#4a3018" stroke-width="2" fill="none" opacity="0.6"/>
  <!-- Clean side definition -->
  <path d="M 66 105 Q 68 94 72 92" stroke="#3a2410" stroke-width="2" fill="none"/>
  <path d="M 134 105 Q 132 94 128 92" stroke="#3a2410" stroke-width="2" fill="none"/>

  <!-- Eyebrows - clean, professional -->
  <path d="M 80 103 Q 88 100 96 102" stroke="#3a2410" stroke-width="2.5" fill="none" stroke-linecap="round"/>
  <path d="M 104 102 Q 112 100 120 103" stroke="#3a2410" stroke-width="2.5" fill="none" stroke-linecap="round"/>

  <!-- Eyes - clear, competent, blue-gray -->
  <ellipse cx="88" cy="112" rx="6.5" ry="6.5" fill="#fff"/>
  <ellipse cx="112" cy="112" rx="6.5" ry="6.5" fill="#fff"/>
  <circle cx="88" cy="112" r="5" fill="#3a6090"/>
  <circle cx="112" cy="112" r="5" fill="#3a6090"/>
  <circle cx="88" cy="112" r="3.2" fill="#101828"/>
  <circle cx="112" cy="112" r="3.2" fill="#101828"/>
  <circle cx="89.5" cy="110.5" r="1.4" fill="rgba(255,255,255,0.9)"/>
  <circle cx="113.5" cy="110.5" r="1.4" fill="rgba(255,255,255,0.9)"/>

  <!-- Nose -->
  <path d="M 100 117 Q 97 126 95 128 Q 100 131 105 128 Q 103 126 100 117" fill="#a88458" opacity="0.7"/>

  <!-- Mouth - calm, measured smile -->
  <path d="M 91 137 Q 100 143 109 137" stroke="#7a4825" stroke-width="2" fill="none" stroke-linecap="round"/>
  <path d="M 93 135 Q 100 137 107 135" stroke="#d09070" stroke-width="1.5" fill="none" opacity="0.6"/>

  <!-- Blue delivery accent glow ring -->
  <circle cx="100" cy="100" r="97" fill="none" stroke="#4a90d9" stroke-width="2" opacity="0.4"/>
</svg>
